G04 EAGLE Gerber RS-274X export*
G75*
%MOMM*%
%FSLAX34Y34*%
%LPD*%
%INSoldermask Top*%
%IPPOS*%
%AMOC8*
5,1,8,0,0,1.08239X$1,22.5*%
G01*
%ADD10C,3.203194*%
%ADD11R,2.203200X1.403200*%
%ADD12R,1.403200X1.703200*%
%ADD13R,2.006200X1.803200*%
%ADD14C,1.727200*%
%ADD15C,1.603200*%
%ADD16R,0.603200X1.253200*%
%ADD17R,1.711200X1.711200*%
%ADD18C,1.711200*%
%ADD19C,2.203200*%
%ADD20R,1.903200X2.703200*%
%ADD21R,1.503200X1.703200*%
%ADD22R,1.803200X2.006200*%
%ADD23C,1.625600*%
%ADD24R,1.703200X1.503200*%
%ADD25C,0.959600*%


D10*
X165100Y546100D03*
X165100Y139700D03*
X546100Y139700D03*
X546100Y546100D03*
D11*
X268300Y278200D03*
X268300Y298200D03*
X268300Y318200D03*
X268300Y338200D03*
X268300Y358200D03*
X268300Y378200D03*
X268300Y398200D03*
X268300Y418200D03*
D12*
X293300Y263200D03*
X313300Y263200D03*
X333300Y263200D03*
X353300Y263200D03*
X373300Y263200D03*
X393300Y263200D03*
D11*
X418300Y278200D03*
X418300Y298200D03*
X418300Y318200D03*
X418300Y338200D03*
X418300Y358200D03*
X418300Y378200D03*
X418300Y398200D03*
X418300Y418200D03*
D13*
X457200Y338070D03*
X457200Y309630D03*
D14*
X552196Y496062D02*
X552196Y511302D01*
X506984Y511302D02*
X506984Y496062D01*
X552196Y446278D02*
X552196Y431038D01*
X506984Y431038D02*
X506984Y446278D01*
X552196Y399542D02*
X552196Y384302D01*
X506984Y384302D02*
X506984Y399542D01*
X552196Y334518D02*
X552196Y319278D01*
X506984Y319278D02*
X506984Y334518D01*
D15*
X302500Y501300D02*
X302500Y515300D01*
D16*
X267000Y506050D03*
X260500Y506050D03*
X254000Y506050D03*
X247500Y506050D03*
X241000Y506050D03*
D15*
X205500Y501300D02*
X205500Y515300D01*
X302500Y536300D02*
X302500Y550300D01*
X205500Y550300D02*
X205500Y536300D01*
D17*
X482600Y304800D03*
D18*
X482600Y330200D03*
X482600Y355600D03*
X482600Y381000D03*
D19*
X471170Y238760D03*
X471170Y447040D03*
X240030Y447040D03*
X240030Y238760D03*
D20*
X177800Y430850D03*
X177800Y470850D03*
D21*
X168300Y393700D03*
X187300Y393700D03*
D13*
X228600Y312670D03*
X228600Y284230D03*
D22*
X242820Y381000D03*
X214380Y381000D03*
X242820Y406400D03*
X214380Y406400D03*
X442980Y285750D03*
X471420Y285750D03*
D14*
X298450Y160020D02*
X298450Y144780D01*
X273050Y144780D02*
X273050Y160020D01*
X247650Y160020D02*
X247650Y144780D01*
X179070Y177800D02*
X163830Y177800D01*
X163830Y203200D02*
X179070Y203200D01*
X179070Y228600D02*
X163830Y228600D01*
X163830Y293370D02*
X179070Y293370D01*
X179070Y318770D02*
X163830Y318770D01*
X163830Y344170D02*
X179070Y344170D01*
D23*
X444500Y488188D02*
X444500Y502412D01*
X469900Y502412D02*
X469900Y488188D01*
D24*
X209550Y447700D03*
X209550Y466700D03*
D14*
X519430Y226060D02*
X534670Y226060D01*
X534670Y251460D02*
X519430Y251460D01*
X519430Y276860D02*
X534670Y276860D01*
X406400Y160020D02*
X406400Y144780D01*
X381000Y144780D02*
X381000Y160020D01*
X355600Y160020D02*
X355600Y144780D01*
X431800Y144780D02*
X431800Y160020D01*
X457200Y160020D02*
X457200Y144780D01*
X482600Y144780D02*
X482600Y160020D01*
X508000Y160020D02*
X508000Y144780D01*
D25*
X393700Y288290D03*
X438150Y304800D03*
X196850Y419100D03*
X184150Y368300D03*
X177800Y412750D03*
X190500Y450850D03*
X495300Y254000D03*
X454660Y368300D03*
X393700Y320040D03*
X250190Y320040D03*
X304800Y298450D03*
X406400Y196850D03*
X292100Y311150D03*
X381000Y238760D03*
X314960Y276860D03*
X400050Y419100D03*
X438150Y406400D03*
M02*
