G04 EAGLE Gerber RS-274X export*
G75*
%MOMM*%
%FSLAX34Y34*%
%LPD*%
%INSolderpaste Top*%
%IPPOS*%
%AMOC8*
5,1,8,0,0,1.08239X$1,22.5*%
G01*
%ADD10R,2.000000X1.200000*%
%ADD11R,1.200000X1.500000*%
%ADD12R,1.803000X1.600000*%
%ADD13R,0.400000X1.050000*%
%ADD14R,1.700000X2.500000*%
%ADD15R,1.300000X1.500000*%
%ADD16R,1.600000X1.803000*%
%ADD17R,1.500000X1.300000*%


D10*
X268300Y278200D03*
X268300Y298200D03*
X268300Y318200D03*
X268300Y338200D03*
X268300Y358200D03*
X268300Y378200D03*
X268300Y398200D03*
X268300Y418200D03*
D11*
X293300Y263200D03*
X313300Y263200D03*
X333300Y263200D03*
X353300Y263200D03*
X373300Y263200D03*
X393300Y263200D03*
D10*
X418300Y278200D03*
X418300Y298200D03*
X418300Y318200D03*
X418300Y338200D03*
X418300Y358200D03*
X418300Y378200D03*
X418300Y398200D03*
X418300Y418200D03*
D12*
X457200Y338070D03*
X457200Y309630D03*
D13*
X267000Y506050D03*
X260500Y506050D03*
X254000Y506050D03*
X247500Y506050D03*
X241000Y506050D03*
D14*
X177800Y430850D03*
X177800Y470850D03*
D15*
X168300Y393700D03*
X187300Y393700D03*
D12*
X228600Y312670D03*
X228600Y284230D03*
D16*
X242820Y381000D03*
X214380Y381000D03*
X242820Y406400D03*
X214380Y406400D03*
X442980Y285750D03*
X471420Y285750D03*
D17*
X209550Y447700D03*
X209550Y466700D03*
M02*
